<mxfile host="app.diagrams.net" agent="Mozilla/5.0 (Macintosh; Intel Mac OS X 10_15_7) AppleWebKit/537.36 (KHTML, like Gecko) Chrome/131.0.0.0 Safari/537.36" version="24.8.6">
  <diagram name="Page-1" id="c4acf3e9-155e-7222-9cf6-157b1a14988f">
    <mxGraphModel dx="2122" dy="852" grid="1" gridSize="10" guides="1" tooltips="1" connect="1" arrows="1" fold="1" page="1" pageScale="1" pageWidth="850" pageHeight="1100" background="none" math="0" shadow="0">
      <root>
        <mxCell id="0" />
        <mxCell id="1" parent="0" />
        <mxCell id="RVb5oqGzyK0K8IVMlo9C-1" value="&lt;p style=&quot;margin:0px;margin-top:4px;text-align:center;&quot;&gt;&lt;b&gt;AccountManager&lt;/b&gt;&lt;/p&gt;&lt;hr size=&quot;1&quot; style=&quot;border-style:solid;&quot;&gt;&lt;p style=&quot;margin:0px;margin-left:4px;&quot;&gt;protected HashMap&amp;lt;String, User&amp;gt; users&lt;/p&gt;&lt;p style=&quot;margin:0px;margin-left:4px;&quot;&gt;private HashSet&amp;lt;String&amp;gt; usernames&lt;/p&gt;&lt;p style=&quot;margin:0px;margin-left:4px;&quot;&gt;private TransactionHistory transactionHistory&lt;/p&gt;&lt;hr size=&quot;1&quot; style=&quot;border-style:solid;&quot;&gt;&lt;p style=&quot;margin:0px;margin-left:4px;&quot;&gt;AccountManager()&lt;/p&gt;&lt;p style=&quot;margin:0px;margin-left:4px;&quot;&gt;boolean createAccount(String, String, String, String, boolean)&lt;/p&gt;&lt;p style=&quot;margin:0px;margin-left:4px;&quot;&gt;User logIn(String, String)&lt;/p&gt;&lt;p style=&quot;margin:0px;margin-left:4px;&quot;&gt;User getUser(String)&lt;/p&gt;&lt;p style=&quot;margin:0px;margin-left:4px;&quot;&gt;void addTransaction(Transaction)&lt;/p&gt;&lt;p style=&quot;margin:0px;margin-left:4px;&quot;&gt;ArrayList&amp;lt;Transaction&amp;gt; getAllTransactions()&lt;/p&gt;" style="verticalAlign=top;align=left;overflow=fill;html=1;whiteSpace=wrap;" vertex="1" parent="1">
          <mxGeometry x="60" y="30" width="340" height="180" as="geometry" />
        </mxCell>
        <mxCell id="RVb5oqGzyK0K8IVMlo9C-5" value="&lt;p style=&quot;margin:0px;margin-top:4px;text-align:center;&quot;&gt;&lt;b&gt;Admin&lt;/b&gt;&lt;/p&gt;&lt;hr size=&quot;1&quot; style=&quot;border-style:solid;&quot;&gt;&lt;p style=&quot;margin:0px;margin-left:4px;&quot;&gt;private AccountManager accountManager&lt;/p&gt;&lt;hr size=&quot;1&quot; style=&quot;border-style:solid;&quot;&gt;&lt;p style=&quot;margin:0px;margin-left:4px;&quot;&gt;Admin(String, String, String, String, AccountManager, boolean)&lt;/p&gt;&lt;p style=&quot;margin:0px;margin-left:4px;&quot;&gt;ArrayList&amp;lt;User&amp;gt; getUsers()&lt;/p&gt;&lt;p style=&quot;margin:0px;margin-left:4px;&quot;&gt;void changePassword(User, String)&lt;/p&gt;&lt;p style=&quot;margin:0px;margin-left:4px;&quot;&gt;void printAllTransactions()&lt;/p&gt;&lt;p style=&quot;margin:0px;margin-left:4px;&quot;&gt;void printUsers()&lt;/p&gt;" style="verticalAlign=top;align=left;overflow=fill;html=1;whiteSpace=wrap;" vertex="1" parent="1">
          <mxGeometry x="-290" y="450" width="280" height="150" as="geometry" />
        </mxCell>
        <mxCell id="RVb5oqGzyK0K8IVMlo9C-34" style="edgeStyle=orthogonalEdgeStyle;rounded=0;orthogonalLoop=1;jettySize=auto;html=1;" edge="1" parent="1" source="RVb5oqGzyK0K8IVMlo9C-8">
          <mxGeometry relative="1" as="geometry">
            <mxPoint x="600" y="240" as="targetPoint" />
            <Array as="points">
              <mxPoint x="245" y="260" />
              <mxPoint x="480" y="260" />
              <mxPoint x="480" y="240" />
            </Array>
          </mxGeometry>
        </mxCell>
        <mxCell id="RVb5oqGzyK0K8IVMlo9C-36" style="edgeStyle=orthogonalEdgeStyle;rounded=0;orthogonalLoop=1;jettySize=auto;html=1;entryX=1;entryY=0.5;entryDx=0;entryDy=0;" edge="1" parent="1" source="RVb5oqGzyK0K8IVMlo9C-8" target="RVb5oqGzyK0K8IVMlo9C-20">
          <mxGeometry relative="1" as="geometry" />
        </mxCell>
        <mxCell id="RVb5oqGzyK0K8IVMlo9C-8" value="&lt;p style=&quot;margin:0px;margin-top:4px;text-align:center;&quot;&gt;&lt;b&gt;User&lt;/b&gt;&lt;/p&gt;&lt;hr size=&quot;1&quot; style=&quot;border-style:solid;&quot;&gt;&lt;p style=&quot;margin:0px;margin-left:4px;&quot;&gt;private String username&lt;/p&gt;&lt;p style=&quot;margin:0px;margin-left:4px;&quot;&gt;private String encPass&lt;/p&gt;&lt;p style=&quot;margin:0px;margin-left:4px;&quot;&gt;private String firstName&lt;/p&gt;&lt;p style=&quot;margin:0px;margin-left:4px;&quot;&gt;private String lastName&lt;/p&gt;&lt;p style=&quot;margin:0px;margin-left:4px;&quot;&gt;protected double balance&lt;/p&gt;&lt;p style=&quot;margin:0px;margin-left:4px;&quot;&gt;public boolean isAdmin&lt;/p&gt;&lt;p style=&quot;margin:0px;margin-left:4px;&quot;&gt;private TransactionHistory transactionHistory&lt;/p&gt;&lt;p style=&quot;margin:0px;margin-left:4px;&quot;&gt;private AccountManager accountManager&lt;/p&gt;&lt;hr size=&quot;1&quot; style=&quot;border-style:solid;&quot;&gt;&lt;p style=&quot;margin:0px;margin-left:4px;&quot;&gt;User(String, String, String, String, AccountManager, boolean)&lt;/p&gt;&lt;p style=&quot;margin:0px;margin-left:4px;&quot;&gt;String getUsername()&lt;/p&gt;&lt;p style=&quot;margin:0px;margin-left:4px;&quot;&gt;String getName()&lt;/p&gt;&lt;p style=&quot;margin:0px;margin-left:4px;&quot;&gt;double getBalance()&lt;/p&gt;&lt;p style=&quot;margin:0px;margin-left:4px;&quot;&gt;String getEncPass()&lt;/p&gt;&lt;p style=&quot;margin:0px;margin-left:4px;&quot;&gt;boolean getAdminStatus()&lt;/p&gt;&lt;p style=&quot;margin:0px;margin-left:4px;&quot;&gt;void changePassword(String)&lt;/p&gt;&lt;p style=&quot;margin:0px;margin-left:4px;&quot;&gt;void printUsers()&lt;/p&gt;&lt;p style=&quot;margin:0px;margin-left:4px;&quot;&gt;void printAllTransactions()&lt;/p&gt;&lt;p style=&quot;margin:0px;margin-left:4px;&quot;&gt;void printMyTransactions()&lt;/p&gt;&lt;p style=&quot;margin:0px;margin-left:4px;&quot;&gt;void addFunds(double)&lt;/p&gt;&lt;p style=&quot;margin:0px;margin-left:4px;&quot;&gt;void subFunds(double)&lt;/p&gt;&lt;p style=&quot;margin:0px;margin-left:4px;&quot;&gt;void depositFunds(double)&lt;/p&gt;&lt;p style=&quot;margin:0px;margin-left:4px;&quot;&gt;void withdrawlFunds(double)&lt;/p&gt;&lt;p style=&quot;margin:0px;margin-left:4px;&quot;&gt;void transferFunds(double, User)&lt;/p&gt;" style="verticalAlign=top;align=left;overflow=fill;html=1;whiteSpace=wrap;" vertex="1" parent="1">
          <mxGeometry x="50" y="280" width="390" height="390" as="geometry" />
        </mxCell>
        <mxCell id="RVb5oqGzyK0K8IVMlo9C-24" style="edgeStyle=orthogonalEdgeStyle;rounded=0;orthogonalLoop=1;jettySize=auto;html=1;exitX=0.164;exitY=0.002;exitDx=0;exitDy=0;exitPerimeter=0;" edge="1" parent="1" source="RVb5oqGzyK0K8IVMlo9C-11">
          <mxGeometry relative="1" as="geometry">
            <mxPoint x="400" y="130" as="targetPoint" />
            <Array as="points">
              <mxPoint x="520" y="401" />
              <mxPoint x="520" y="130" />
            </Array>
          </mxGeometry>
        </mxCell>
        <mxCell id="RVb5oqGzyK0K8IVMlo9C-31" style="edgeStyle=orthogonalEdgeStyle;rounded=0;orthogonalLoop=1;jettySize=auto;html=1;entryX=1;entryY=0.75;entryDx=0;entryDy=0;" edge="1" parent="1" source="RVb5oqGzyK0K8IVMlo9C-11" target="RVb5oqGzyK0K8IVMlo9C-8">
          <mxGeometry relative="1" as="geometry" />
        </mxCell>
        <mxCell id="RVb5oqGzyK0K8IVMlo9C-11" value="&lt;p style=&quot;margin:0px;margin-top:4px;text-align:center;&quot;&gt;&lt;b&gt;Transaction&lt;/b&gt;&lt;/p&gt;&lt;hr size=&quot;1&quot; style=&quot;border-style:solid;&quot;&gt;&lt;p style=&quot;margin:0px;margin-left:4px;&quot;&gt;private String type&lt;/p&gt;&lt;p style=&quot;margin:0px;margin-left:4px;&quot;&gt;private double amount&lt;/p&gt;&lt;p style=&quot;margin:0px;margin-left:4px;&quot;&gt;private Date date&lt;/p&gt;&lt;p style=&quot;margin:0px;margin-left:4px;&quot;&gt;private User user&lt;/p&gt;&lt;p style=&quot;margin:0px;margin-left:4px;&quot;&gt;private User recipient&lt;/p&gt;&lt;hr size=&quot;1&quot; style=&quot;border-style:solid;&quot;&gt;&lt;p style=&quot;margin:0px;margin-left:4px;&quot;&gt;Transaction(String, double, User)&lt;/p&gt;&lt;p style=&quot;margin:0px;margin-left:4px;&quot;&gt;Transaction(String, double, User, User)&lt;/p&gt;&lt;p style=&quot;margin:0px;margin-left:4px;&quot;&gt;String toString()&lt;/p&gt;&lt;p style=&quot;margin:0px;margin-left:4px;&quot;&gt;String getType()&lt;/p&gt;&lt;p style=&quot;margin:0px;margin-left:4px;&quot;&gt;double getAmount()&lt;/p&gt;&lt;p style=&quot;margin:0px;margin-left:4px;&quot;&gt;Date getDate()&lt;/p&gt;&lt;p style=&quot;margin:0px;margin-left:4px;&quot;&gt;User getUser()&lt;/p&gt;&lt;p style=&quot;margin:0px;margin-left:4px;&quot;&gt;User getRecipient()&lt;/p&gt;" style="verticalAlign=top;align=left;overflow=fill;html=1;whiteSpace=wrap;" vertex="1" parent="1">
          <mxGeometry x="480" y="400" width="260" height="250" as="geometry" />
        </mxCell>
        <mxCell id="RVb5oqGzyK0K8IVMlo9C-13" value="&lt;p style=&quot;margin:0px;margin-top:4px;text-align:center;&quot;&gt;&lt;b&gt;TransactionHistory&lt;/b&gt;&lt;/p&gt;&lt;hr size=&quot;1&quot; style=&quot;border-style:solid;&quot;&gt;&lt;p style=&quot;margin:0px;margin-left:4px;&quot;&gt;private ArrayList&amp;lt;Transaction&amp;gt; transactions&lt;/p&gt;&lt;hr size=&quot;1&quot; style=&quot;border-style:solid;&quot;&gt;&lt;p style=&quot;margin:0px;margin-left:4px;&quot;&gt;TransactionHistory()&lt;/p&gt;&lt;p style=&quot;margin:0px;margin-left:4px;&quot;&gt;void addTransaction(Transaction)&lt;/p&gt;&lt;p style=&quot;margin:0px;margin-left:4px;&quot;&gt;ArrayList&amp;lt;Transaction&amp;gt; getAllTransactions()&lt;/p&gt;&lt;p style=&quot;margin:0px;margin-left:4px;&quot;&gt;ArrayList&amp;lt;Transaction&amp;gt; getTransactionsForUser(User)&lt;/p&gt;" style="verticalAlign=top;align=left;overflow=fill;html=1;whiteSpace=wrap;" vertex="1" parent="1">
          <mxGeometry x="600" y="190" width="220" height="170" as="geometry" />
        </mxCell>
        <mxCell id="RVb5oqGzyK0K8IVMlo9C-19" value="&lt;p style=&quot;margin:0px;margin-top:4px;text-align:center;&quot;&gt;&lt;b&gt;Hash&lt;/b&gt;&lt;/p&gt;&lt;hr size=&quot;1&quot; style=&quot;border-style:solid;&quot;&gt;&lt;p style=&quot;margin:0px;margin-left:4px;&quot;&gt;static String sha256(String)&lt;/p&gt;" style="verticalAlign=top;align=left;overflow=fill;html=1;whiteSpace=wrap;" vertex="1" parent="1">
          <mxGeometry x="50" y="710" width="160" height="60" as="geometry" />
        </mxCell>
        <mxCell id="RVb5oqGzyK0K8IVMlo9C-20" value="&lt;p style=&quot;margin:0px;margin-top:4px;text-align:center;&quot;&gt;&lt;b&gt;UserInterface&lt;/b&gt;&lt;/p&gt;&lt;hr size=&quot;1&quot; style=&quot;border-style:solid;&quot;&gt;&lt;p style=&quot;margin:0px;margin-left:4px;&quot;&gt;private AccountManager accManager&lt;/p&gt;&lt;p style=&quot;margin:0px;margin-left:4px;&quot;&gt;private Scanner input&lt;/p&gt;&lt;p style=&quot;margin:0px;margin-left:4px;&quot;&gt;private User activeUser&lt;/p&gt;&lt;div&gt;&lt;br&gt;&lt;/div&gt;&lt;hr size=&quot;1&quot; style=&quot;border-style:solid;&quot;&gt;&lt;p style=&quot;margin:0px;margin-left:4px;&quot;&gt;UserInterface(AccountManager)&lt;/p&gt;&lt;p style=&quot;margin:0px;margin-left:4px;&quot;&gt;void start()&lt;/p&gt;&lt;p style=&quot;margin:0px;margin-left:4px;&quot;&gt;private int getValidInput(int, int)&lt;/p&gt;" style="verticalAlign=top;align=left;overflow=fill;html=1;whiteSpace=wrap;" vertex="1" parent="1">
          <mxGeometry x="-290" y="60" width="230" height="170" as="geometry" />
        </mxCell>
        <mxCell id="RVb5oqGzyK0K8IVMlo9C-22" value="1" style="endArrow=open;html=1;endSize=12;startArrow=diamondThin;startSize=14;startFill=1;edgeStyle=orthogonalEdgeStyle;align=left;verticalAlign=bottom;rounded=0;entryX=0.58;entryY=0.996;entryDx=0;entryDy=0;entryPerimeter=0;exitX=0.465;exitY=-0.007;exitDx=0;exitDy=0;exitPerimeter=0;" edge="1" parent="1">
          <mxGeometry x="-0.3604" y="12" relative="1" as="geometry">
            <mxPoint x="232.07000000000014" y="280" as="sourcePoint" />
            <mxPoint x="257.9200000000001" y="212.00999999999996" as="targetPoint" />
            <Array as="points">
              <mxPoint x="231.72" y="242.73" />
              <mxPoint x="257.72" y="242.73" />
            </Array>
            <mxPoint as="offset" />
          </mxGeometry>
        </mxCell>
        <mxCell id="RVb5oqGzyK0K8IVMlo9C-23" value="1" style="endArrow=open;html=1;endSize=12;startArrow=diamondThin;startSize=14;startFill=1;edgeStyle=orthogonalEdgeStyle;align=left;verticalAlign=bottom;rounded=0;entryX=1.001;entryY=0.341;entryDx=0;entryDy=0;entryPerimeter=0;exitX=0;exitY=0.571;exitDx=0;exitDy=0;exitPerimeter=0;" edge="1" parent="1" source="RVb5oqGzyK0K8IVMlo9C-13" target="RVb5oqGzyK0K8IVMlo9C-1">
          <mxGeometry x="-1" y="3" relative="1" as="geometry">
            <mxPoint x="440" y="120" as="sourcePoint" />
            <mxPoint x="600" y="120" as="targetPoint" />
            <Array as="points">
              <mxPoint x="600" y="91" />
            </Array>
          </mxGeometry>
        </mxCell>
        <mxCell id="RVb5oqGzyK0K8IVMlo9C-25" value="" style="html=1;verticalAlign=bottom;endArrow=open;dashed=1;endSize=8;curved=0;rounded=0;entryX=1;entryY=0.5;entryDx=0;entryDy=0;exitX=0.003;exitY=0.613;exitDx=0;exitDy=0;exitPerimeter=0;" edge="1" parent="1" source="RVb5oqGzyK0K8IVMlo9C-8" target="RVb5oqGzyK0K8IVMlo9C-5">
          <mxGeometry relative="1" as="geometry">
            <mxPoint x="-70" y="670" as="sourcePoint" />
            <mxPoint x="-10" y="620" as="targetPoint" />
          </mxGeometry>
        </mxCell>
        <mxCell id="RVb5oqGzyK0K8IVMlo9C-26" value="" style="endArrow=diamondThin;endFill=1;endSize=24;html=1;rounded=0;entryX=0.5;entryY=0;entryDx=0;entryDy=0;exitX=0;exitY=0.25;exitDx=0;exitDy=0;" edge="1" parent="1" source="RVb5oqGzyK0K8IVMlo9C-1" target="RVb5oqGzyK0K8IVMlo9C-5">
          <mxGeometry width="160" relative="1" as="geometry">
            <mxPoint x="-160" y="70" as="sourcePoint" />
            <mxPoint y="70" as="targetPoint" />
          </mxGeometry>
        </mxCell>
        <mxCell id="RVb5oqGzyK0K8IVMlo9C-30" style="edgeStyle=orthogonalEdgeStyle;rounded=0;orthogonalLoop=1;jettySize=auto;html=1;entryX=0.004;entryY=0.44;entryDx=0;entryDy=0;entryPerimeter=0;" edge="1" parent="1" source="RVb5oqGzyK0K8IVMlo9C-8" target="RVb5oqGzyK0K8IVMlo9C-11">
          <mxGeometry relative="1" as="geometry" />
        </mxCell>
        <mxCell id="RVb5oqGzyK0K8IVMlo9C-32" value="" style="endArrow=diamondThin;endFill=1;endSize=24;html=1;rounded=0;entryX=0.5;entryY=0;entryDx=0;entryDy=0;exitX=0.5;exitY=1;exitDx=0;exitDy=0;" edge="1" parent="1" source="RVb5oqGzyK0K8IVMlo9C-13" target="RVb5oqGzyK0K8IVMlo9C-11">
          <mxGeometry width="160" relative="1" as="geometry">
            <mxPoint x="710" y="380" as="sourcePoint" />
            <mxPoint x="870" y="380" as="targetPoint" />
          </mxGeometry>
        </mxCell>
        <mxCell id="RVb5oqGzyK0K8IVMlo9C-33" style="edgeStyle=orthogonalEdgeStyle;rounded=0;orthogonalLoop=1;jettySize=auto;html=1;entryX=0.83;entryY=1.006;entryDx=0;entryDy=0;entryPerimeter=0;" edge="1" parent="1" source="RVb5oqGzyK0K8IVMlo9C-8" target="RVb5oqGzyK0K8IVMlo9C-1">
          <mxGeometry relative="1" as="geometry" />
        </mxCell>
        <mxCell id="RVb5oqGzyK0K8IVMlo9C-37" style="edgeStyle=orthogonalEdgeStyle;rounded=0;orthogonalLoop=1;jettySize=auto;html=1;entryX=1.01;entryY=0.333;entryDx=0;entryDy=0;entryPerimeter=0;" edge="1" parent="1" source="RVb5oqGzyK0K8IVMlo9C-1" target="RVb5oqGzyK0K8IVMlo9C-20">
          <mxGeometry relative="1" as="geometry" />
        </mxCell>
      </root>
    </mxGraphModel>
  </diagram>
</mxfile>
